<?xml version="1.0" encoding="utf-8"?>
<!-- Generator: Adobe Illustrator 16.0.4, SVG Export Plug-In . SVG Version: 6.00 Build 0)  -->
<!DOCTYPE svg PUBLIC "-//W3C//DTD SVG 1.1//EN" "http://www.w3.org/Graphics/SVG/1.1/DTD/svg11.dtd">
<svg version="1.1" id="Layer_1" xmlns="http://www.w3.org/2000/svg" xmlns:xlink="http://www.w3.org/1999/xlink" x="0px" y="0px"
	 width="20px" height="20px" viewBox="0 0 20 20" enable-background="new 0 0 20 20" xml:space="preserve">
<g>
	<path fill="#333333" d="M10,0C4.487,0,0.001,4.486,0.001,9.999C0.001,15.514,4.487,20,10,20s9.999-4.486,9.999-10.001
		C19.999,4.486,15.513,0,10,0z M10,17.879c-4.347,0-7.88-3.535-7.88-7.88C2.12,5.654,5.653,2.12,10,2.12
		c4.346,0,7.891,3.534,7.891,7.879C17.891,14.344,14.346,17.879,10,17.879z"/>
	<g>
		<path fill="#333333" d="M7.497,14.578c-0.27,0-0.497-0.043-0.694-0.133c-0.2-0.09-0.383-0.242-0.545-0.451
			c-0.13-0.184-0.23-0.379-0.321-0.615c-0.081-0.207-0.179-0.518-0.29-0.928l-0.027-0.107c-0.17-0.6-0.193-0.805-0.193-0.922
			c0-0.268,0.104-0.662,0.596-1.015c0.343-0.245,0.698-0.369,1.057-0.369c0.206,0,0.391,0.07,0.536,0.203
			c0.119,0.117,0.207,0.265,0.3,0.493c0.026,0.065,0.058,0.147,0.094,0.246c0.106-0.159,0.243-0.369,0.416-0.645
			c0.516-0.816,0.96-1.499,1.33-2.054c0.548-0.82,0.93-1.361,1.202-1.706c0.29-0.371,0.555-0.653,0.807-0.86
			c0.236-0.196,0.543-0.352,0.908-0.462c0.333-0.1,0.751-0.167,1.243-0.2L14.28,5.03l0.325,0.833L14.4,6.091
			c-0.983,1.098-1.923,2.256-2.793,3.445c-0.859,1.171-1.665,2.397-2.396,3.647c-0.049,0.084-0.112,0.203-0.189,0.357
			C8.594,14.398,7.957,14.578,7.497,14.578z"/>
	</g>
</g>
</svg>
